# xmcd
#
# Track frame offsets: 
#        150
#        21149
#        46150
#        64006
#        97068
#        130014
#        146370
#        171966
#        194226
#        218616
#        240652
#        265771
#        291625
#        306624
#        322868
#
# Disc length: 4518 seconds
#
# Revision: 1
# Processed by: cddbd v1.5.2PL0 Copyright (c) Steve Scherf et al.
# Submitted via: ExactAudioCopy v0.99pb5
#
DISCID=e411a40f
DTITLE=Various Artist - Kontor Maximum Trance 2 [CD2)
DYEAR=2006
DGENRE=Trance
TTITLE0=Mark Norman - Touch Down
TTITLE1=Scooter - Apache Rocks The Bottom! (Dub Mix)
TTITLE2=Ronski Speed with Stoneface and Terminal - Incognition
TTITLE3=E-Craig vs. Ratty - Call It A Sunrise (Here I Am) (212 A.M. Mi
TTITLE3=x)
TTITLE4=DJ Shog - Jealousy (Marcel Woods Remix)
TTITLE5=Marc van Linden - Forbidden Love
TTITLE6=DJ Sammy - L'bby Haba (Randy Katana Remix)
TTITLE7=Sander van Doorn - Loaded
TTITLE8=Lange vs. Gareth Emery - Three
TTITLE9=Riley and Durrant - Home
TTITLE10=Maxi Madrid - Un Dia (E-Craig Remix)
TTITLE11=Voodoo and Serano - Let Yourself Go (Milo.NL vs. CJ Stone Remix
TTITLE11=)
TTITLE12=Clokx - Tibet
TTITLE13=Yves Deruyter - Infinity
TTITLE14=DJ Moe vs. Yoba - Tranceformation (DJ Wag's Short Mix)
EXTD=
EXTT0=
EXTT1=
EXTT2=
EXTT3=
EXTT4=
EXTT5=
EXTT6=
EXTT7=
EXTT8=
EXTT9=
EXTT10=
EXTT11=
EXTT12=
EXTT13=
EXTT14=
PLAYORDER=
